REM MD5 ca4492b979cb144cabd6e9b172467a19
FILE "Kimi ni Steady (Japan).bin" BINARY
  TRACK 01 MODE2/2352
    INDEX 01 00:00:00
  TRACK 02 AUDIO
    INDEX 00 56:09:41
    INDEX 01 56:11:41
  TRACK 03 AUDIO
    INDEX 00 59:39:39
    INDEX 01 59:41:39
REM LEADOUT 64:42:62
